<?xml version="1.0" standalone="no"?>
<!DOCTYPE svg PUBLIC "-//W3C//DTD SVG 20010904//EN"
 "http://www.w3.org/TR/2001/REC-SVG-20010904/DTD/svg10.dtd">
<svg version="1.0" xmlns="http://www.w3.org/2000/svg"
 width="306.000000pt" height="306.000000pt" viewBox="0 0 306.000000 306.000000"
 preserveAspectRatio="xMidYMid meet">
<metadata>
Created by potrace 1.14, written by Peter Selinger 2001-2017
</metadata>
<g transform="translate(0.000000,306.000000) scale(0.100000,-0.100000)"
fill="#000000" stroke="none">
<path d="M0 1791 l0 -1250 48 -6 c26 -3 65 -11 87 -19 22 -7 56 -12 75 -10 38
3 110 -14 110 -27 0 -4 10 -5 21 -2 15 4 -9 16 -82 39 -57 18 -116 36 -132 40
-16 3 -26 8 -24 11 3 2 61 -9 129 -25 170 -42 171 -42 188 -32 12 8 9 10 -12
10 -15 0 -30 5 -34 11 -5 8 3 10 27 5 53 -12 102 -9 110 6 7 12 105 62 249
126 l44 19 13 -24 c18 -34 16 -53 -5 -69 -15 -12 -14 -13 11 -14 40 0 57 -40
31 -72 -19 -24 -25 -28 -44 -28 -5 0 -9 -10 -7 -22 1 -18 -3 -22 -19 -20 -24
3 -154 -53 -154 -67 0 -5 -7 -17 -16 -25 -14 -15 -18 -15 -42 -1 -57 32 -127
56 -130 46 -2 -6 -8 -11 -13 -11 -6 0 -8 4 -5 9 3 5 -16 14 -42 21 -26 6 -57
16 -69 20 -24 10 -37 -1 -45 -37 -6 -24 19 -145 31 -153 5 -3 11 -48 15 -100
4 -65 11 -99 21 -110 14 -13 163 -15 1370 -18 l1355 -2 0 300 0 300 -23 0
c-13 0 -88 -9 -168 -20 -269 -38 -384 -48 -506 -47 -67 1 -124 5 -127 8 -4 3
-4 13 -1 21 5 12 15 14 46 8 21 -4 39 -4 39 0 0 10 -26 20 -51 20 -17 0 -19 5
-13 35 10 54 -12 43 -31 -16 -9 -28 -19 -48 -22 -45 -3 3 0 19 6 37 6 18 11
54 11 82 0 54 3 66 126 464 46 149 84 286 84 302 0 51 237 794 250 786 5 -3 7
-11 5 -18 -2 -7 -53 -166 -114 -354 -61 -189 -111 -357 -111 -374 0 -18 -47
-183 -105 -368 -105 -337 -128 -431 -106 -431 6 0 11 12 11 27 0 27 28 123
101 348 21 67 39 128 39 138 0 9 12 24 28 32 15 9 19 14 10 11 -10 -3 -18 -1
-18 3 0 20 13 41 24 41 14 0 240 99 271 119 18 11 17 12 -10 7 -16 -2 -39 -8
-50 -11 -11 -4 -5 3 14 16 58 39 18 32 -99 -17 -61 -25 -113 -44 -117 -41 -3
3 12 13 33 22 139 58 161 71 205 118 l45 50 56 -6 c52 -5 67 -1 160 38 l103
44 2 338 c2 254 -1 342 -10 354 -6 9 -66 48 -132 87 -66 40 -116 72 -112 72 5
0 50 -24 100 -54 51 -29 107 -61 125 -70 l32 -17 0 210 0 209 -54 6 c-34 5
-56 13 -60 22 -4 11 -1 14 12 10 9 -2 36 -8 60 -11 l42 -7 0 126 0 126 -1530
0 -1530 0 0 -1249z m2148 1127 c-2 -6 -10 -14 -16 -16 -7 -2 -10 2 -6 12 7 18
28 22 22 4z m532 -28 c11 -7 6 -10 -20 -10 -19 0 -42 5 -50 10 -11 7 -6 10 20
10 19 0 42 -5 50 -10z m-437 -32 c64 -12 117 -26 117 -30 0 -5 -8 -7 -17 -4
-10 2 -63 12 -118 21 -55 10 -104 21 -109 26 -14 13 -6 12 127 -13z m154 -34
c-3 -3 -12 -4 -19 -1 -8 3 -5 6 6 6 11 1 17 -2 13 -5z m143 -4 c0 -5 -4 -10
-10 -10 -5 0 -10 5 -10 10 0 6 5 10 10 10 6 0 10 -4 10 -10z m-93 -6 c-3 -3
-12 -4 -19 -1 -8 3 -5 6 6 6 11 1 17 -2 13 -5z m68 -14 c25 -11 -1 -11 -35 0
-20 6 -21 8 -5 8 11 0 29 -3 40 -8z m113 -6 c12 -8 22 -19 22 -23 0 -10 -69
21 -70 32 0 12 24 8 48 -9z m-211 -86 c42 -12 55 -31 16 -23 -26 5 -26 5 -5
-5 13 -5 28 -8 33 -4 8 4 231 -115 252 -135 5 -5 -3 -7 -16 -6 -24 3 -342 167
-362 186 -11 11 21 6 82 -13z m-706 -127 c10 -12 19 -21 21 -20 21 13 87 -58
70 -75 -4 -4 -1 -6 7 -4 8 2 17 -6 19 -17 2 -11 11 -28 20 -37 9 -11 11 -18 4
-18 -20 0 -13 -14 17 -35 16 -10 28 -22 25 -26 -2 -4 0 -10 5 -14 7 -3 4 -19
-6 -40 -18 -39 -34 -47 -26 -14 4 16 2 20 -8 17 -8 -3 -14 -11 -14 -19 0 -8
-12 -15 -27 -17 -26 -3 -27 -2 -17 27 6 17 15 31 21 31 5 0 6 5 3 10 -13 20
-35 10 -35 -16 0 -17 -6 -28 -20 -31 -11 -3 -20 -14 -20 -24 0 -10 -6 -22 -13
-26 -18 -10 -29 -43 -16 -43 6 0 9 -6 7 -12 -5 -13 14 -38 27 -38 4 0 4 7 1
16 -5 14 -4 15 9 4 12 -10 15 -10 15 4 0 9 4 16 10 16 5 0 7 8 4 18 -5 14 -4
14 4 3 8 -11 6 -21 -4 -35 -8 -11 -14 -28 -14 -38 0 -9 -18 -32 -41 -50 -38
-31 -41 -36 -36 -73 5 -39 16 -70 39 -110 6 -11 15 -27 20 -35 5 -8 15 -29 22
-45 8 -17 24 -39 36 -50 12 -11 30 -36 40 -56 12 -23 32 -42 59 -54 27 -12 44
-27 48 -43 6 -26 3 -25 129 -6 61 9 105 -15 132 -72 20 -41 21 -47 8 -77 -28
-61 -61 -86 -68 -51 -3 14 -7 13 -30 -5 -14 -12 -32 -21 -38 -21 -7 0 -18 -7
-24 -16 -15 -19 -80 -33 -162 -34 -49 0 -67 5 -90 23 -15 12 -38 27 -50 32
-13 6 -38 33 -56 60 -18 28 -37 49 -42 48 -9 -2 -63 -173 -81 -251 -6 -28 -3
-31 31 -42 21 -7 74 -12 118 -11 45 0 97 -3 116 -8 l35 -8 -45 -18 c-25 -10
-72 -33 -105 -50 -33 -17 -79 -37 -102 -44 -23 -8 -40 -17 -38 -21 3 -4 -41
-25 -98 -45 -56 -21 -104 -41 -107 -44 -3 -3 -10 -6 -16 -6 -6 0 -61 -20 -122
-45 -105 -42 -134 -60 -95 -60 9 0 14 -3 11 -6 -4 -3 -57 8 -120 24 -62 16
-124 30 -138 31 -41 1 -79 -19 -95 -52 -20 -40 -19 -42 11 -18 33 26 44 26 44
2 0 -11 -9 -22 -20 -26 -11 -3 -29 -18 -40 -32 l-20 -26 4 44 c5 51 34 139 46
139 5 0 10 -8 12 -17 3 -15 5 -15 21 2 16 15 20 16 28 4 7 -11 9 -11 9 3 0 10
-11 19 -29 23 -16 3 -39 17 -52 31 -41 43 -35 189 10 231 25 25 48 80 55 133
3 25 10 70 15 100 14 84 13 183 -4 230 -13 38 -13 45 4 83 10 23 22 53 26 67
21 71 70 142 129 187 34 25 71 49 84 54 12 5 50 35 84 68 48 47 59 63 53 78
-5 10 -8 49 -7 87 2 72 16 106 36 86 8 -8 7 -13 -2 -19 -8 -5 -10 -18 -6 -41
7 -31 8 -32 16 -11 4 13 13 19 19 15 8 -5 8 -9 -1 -14 -6 -4 -11 -11 -10 -16
1 -4 -7 -11 -17 -15 -10 -4 -13 -8 -8 -9 47 -7 74 -20 42 -20 -9 0 -17 -4 -17
-9 0 -4 11 -6 25 -4 13 3 24 8 23 12 -2 19 3 31 13 28 26 -5 18 22 -10 39 -17
10 -30 25 -28 34 1 8 -3 14 -9 13 -7 -1 -10 6 -7 16 3 10 0 22 -6 25 -12 8 -4
33 16 58 8 9 12 22 8 28 -4 7 0 10 11 8 14 -2 19 3 19 20 1 60 96 102 224 98
63 -2 77 -6 92 -25z m865 -1200 c-3 -5 -16 -11 -28 -14 -22 -6 -22 -5 -4 8 22
17 40 20 32 6z m-341 -70 c-11 -18 -156 -81 -198 -86 l-42 -5 30 14 c17 9 40
15 51 16 12 0 27 7 34 15 7 9 18 14 24 12 7 -3 29 6 51 18 43 25 60 30 50 16z
m56 -39 c-17 -32 -231 -100 -231 -73 0 6 6 11 14 11 7 0 60 22 117 49 102 48
120 51 100 13z m54 -78 l-15 -39 6 35 c7 38 14 54 20 47 2 -2 -3 -21 -11 -43z
m-75 10 c0 -9 -21 -24 -50 -37 -57 -25 -69 -45 -13 -22 20 8 37 14 39 12 3 -3
-96 -295 -120 -351 -9 -22 -28 -54 -41 -72 -14 -18 -25 -36 -25 -41 0 -4 -8
-27 -17 -50 -15 -36 -21 -42 -38 -36 -11 4 -36 7 -55 8 -19 0 -38 4 -41 8 -3
5 -37 17 -75 27 -185 50 -335 91 -389 108 l-60 19 88 41 c49 23 91 42 93 42 4
0 395 174 518 230 37 17 66 33 63 36 -7 7 -280 -106 -293 -122 -6 -8 -13 -11
-16 -8 -8 7 -290 -116 -304 -132 -6 -8 -13 -11 -16 -8 -3 2 -40 -10 -82 -29
-42 -18 -74 -36 -71 -39 3 -2 -10 -2 -28 0 -31 5 -30 6 38 37 39 18 160 71
270 118 110 48 295 129 410 181 116 52 211 94 213 95 1 1 2 -6 2 -15z m-530
-159 c-7 -8 -24 -15 -39 -14 l-26 1 30 13 c40 18 50 18 35 0z m-119 -53 c-5
-10 -55 -36 -110 -59 -55 -22 -98 -37 -95 -32 8 13 1 12 -82 -21 -42 -17 -78
-29 -80 -27 -5 5 347 152 374 157 1 0 -2 -8 -7 -18z m-336 -182 l20 -9 -20 0
c-11 0 -29 4 -40 9 l-20 9 20 0 c11 0 29 -4 40 -9z m905 -40 c0 -5 -4 -10 -10
-10 -5 0 -10 5 -10 10 0 6 5 10 10 10 6 0 10 -4 10 -10z m-1310 -14 c0 -8 -9
-18 -20 -21 -11 -3 -27 -13 -35 -21 -21 -21 -18 -4 3 22 15 17 28 27 50 33 1
1 2 -5 2 -13z m1215 -157 c4 -6 5 -12 3 -14 -7 -7 -48 7 -48 16 0 13 37 11 45
-2z m-1848 -25 c-3 -3 -22 -6 -42 -6 -20 0 -39 3 -42 6 -4 3 15 6 42 6 27 0
46 -3 42 -6z m1973 -24 c0 -5 -5 -10 -11 -10 -5 0 -7 5 -4 10 3 6 8 10 11 10
2 0 4 -4 4 -10z m40 -41 c0 -5 -7 -9 -15 -9 -15 0 -20 12 -9 23 8 8 24 -1 24
-14z m100 -9 c0 -5 -11 -10 -25 -10 -14 0 -25 5 -25 10 0 6 11 10 25 10 14 0
25 -4 25 -10z m-867 -169 c3 -14 0 -17 -14 -14 -14 4 -15 8 -6 19 15 17 14 17
20 -5z m-88 -51 c3 -5 1 -10 -4 -10 -6 0 -11 5 -11 10 0 6 2 10 4 10 3 0 8 -4
11 -10z m-791 -131 c-6 -11 -24 -2 -24 11 0 5 7 7 15 4 8 -4 12 -10 9 -15z
m-34 -39 c17 -17 18 -50 1 -50 -16 1 -33 19 -26 29 4 7 1 18 -5 26 -19 23 6
19 30 -5z"/>
<path d="M1606 2531 c-4 -7 -5 -15 -2 -18 9 -9 19 4 14 18 -4 11 -6 11 -12 0z"/>
<path d="M1662 2501 c-11 -6 -10 -10 5 -15 16 -7 15 -9 -9 -22 -16 -8 -28 -19
-28 -24 0 -6 -7 -10 -15 -10 -8 0 -15 -9 -15 -19 0 -30 -11 -50 -24 -45 -7 3
-18 -8 -25 -23 -10 -21 -14 -24 -22 -12 -7 11 -9 9 -9 -9 0 -17 -7 -24 -30
-28 -16 -4 -30 -7 -30 -8 0 -1 4 -15 9 -33 7 -22 6 -34 -2 -38 -7 -3 -1 -3 13
1 14 3 36 7 50 9 35 4 37 4 23 13 -9 6 1 17 31 36 25 15 47 34 50 42 3 8 11
14 18 14 8 0 9 -3 3 -8 -5 -4 -11 -16 -13 -27 -5 -36 -12 -46 -24 -39 -7 4
-10 3 -5 -1 4 -5 -1 -18 -10 -29 -10 -12 -11 -15 -3 -8 8 6 26 12 40 12 24 0
78 29 55 30 -5 0 -10 15 -9 33 0 17 -6 39 -14 49 -9 11 -10 18 -3 23 6 3 11 3
11 -2 0 -4 6 3 13 17 11 21 11 27 -2 37 -13 10 -10 11 17 2 17 -6 35 -16 39
-22 4 -6 0 -8 -10 -4 -22 8 -21 -1 1 -34 14 -21 21 -25 39 -18 25 9 28 47 3
45 -9 -1 -15 7 -15 19 0 13 -7 20 -20 21 -47 2 -51 4 -37 13 21 13 11 65 -13
69 -11 1 -26 -2 -33 -7z m-2 -102 c0 -5 -7 -9 -15 -9 -15 0 -20 12 -9 23 8 8
24 -1 24 -14z"/>
<path d="M1436 2439 c4 -6 0 -15 -7 -20 -11 -7 -12 -9 -1 -9 8 0 22 -10 32
-22 15 -19 21 -21 31 -10 11 10 10 12 -5 12 -9 0 -14 5 -11 10 3 6 1 10 -4 10
-6 0 -11 6 -11 14 0 8 -7 17 -16 20 -9 4 -13 2 -8 -5z"/>
<path d="M1515 2200 c3 -5 10 -10 16 -10 5 0 9 5 9 10 0 6 -7 10 -16 10 -8 0
-12 -4 -9 -10z"/>
<path d="M1570 2185 c1 -26 2 -28 11 -12 8 14 8 22 0 30 -8 8 -11 3 -11 -18z"/>
<path d="M1191 926 c-11 -12 -18 -26 -14 -29 3 -4 0 -7 -7 -7 -7 0 -11 -2 -8
-5 11 -12 68 18 68 35 0 29 -15 32 -39 6z"/>
<path d="M1246 935 c7 -18 20 -18 59 0 l30 13 -47 1 c-38 1 -46 -2 -42 -14z"/>
<path d="M1033 923 c9 -2 25 -2 35 0 9 3 1 5 -18 5 -19 0 -27 -2 -17 -5z"/>
<path d="M2953 1581 c-106 -48 -153 -79 -101 -67 14 3 34 8 45 12 10 3 1 -4
-19 -15 -35 -20 -57 -41 -42 -41 3 0 55 21 115 46 108 46 109 46 109 80 0 19
-1 34 -2 33 -2 0 -49 -22 -105 -48z"/>
<path d="M3045 1520 c-3 -5 -1 -10 4 -10 6 0 11 5 11 10 0 6 -2 10 -4 10 -3 0
-8 -4 -11 -10z"/>
<path d="M2965 1485 c-27 -13 -45 -23 -40 -24 6 0 33 11 60 24 28 13 46 23 40
24 -5 0 -32 -11 -60 -24z"/>
<path d="M2860 1440 c-8 -5 -10 -10 -5 -10 6 0 17 5 25 10 8 5 11 10 5 10 -5
0 -17 -5 -25 -10z"/>
<path d="M2575 1318 c-49 -21 -94 -44 -100 -49 -11 -11 40 10 145 59 95 44 60
37 -45 -10z"/>
<path d="M2550 775 c-14 -8 -20 -14 -15 -14 6 0 21 6 35 14 14 8 21 14 15 14
-5 0 -21 -6 -35 -14z"/>
<path d="M2506 767 c3 -10 9 -15 12 -12 3 3 0 11 -7 18 -10 9 -11 8 -5 -6z"/>
<path d="M2480 760 c0 -6 -4 -9 -9 -6 -5 4 -20 2 -33 -3 -13 -6 -16 -10 -8
-11 13 0 13 -1 0 -10 -13 -8 -13 -10 2 -10 22 0 68 21 68 31 0 4 -4 11 -10 14
-5 3 -10 1 -10 -5z"/>
<path d="M2650 740 c0 -5 5 -10 10 -10 6 0 10 5 10 10 0 6 -4 10 -10 10 -5 0
-10 -4 -10 -10z"/>
<path d="M2546 718 c10 -14 21 -24 23 -22 3 3 -6 15 -18 27 l-24 22 19 -27z"/>
<path d="M2593 724 c-8 -8 -9 -15 -3 -19 6 -3 10 -1 10 5 0 6 5 8 10 5 6 -3
10 -2 10 4 0 17 -14 20 -27 5z"/>
<path d="M2510 722 c0 -12 19 -26 26 -19 2 2 -2 10 -11 17 -9 8 -15 8 -15 2z"/>
<path d="M0 490 c0 -17 6 -19 40 -17 22 1 40 7 40 14 0 6 -8 9 -19 6 -10 -3
-22 0 -25 6 -12 18 -36 12 -36 -9z"/>
<path d="M131 481 c-11 -7 -10 -11 7 -20 16 -8 21 -7 26 5 3 9 6 18 6 20 0 7
-24 4 -39 -5z"/>
<path d="M0 439 c0 -10 3 -19 8 -20 4 0 16 -2 27 -5 11 -2 32 -5 47 -7 16 -1
28 -5 28 -9 0 -3 11 -5 25 -3 14 1 25 -2 25 -6 0 -5 9 -9 20 -9 35 0 21 19
-23 30 -23 6 -68 19 -99 30 -57 18 -58 18 -58 -1z"/>
<path d="M160 430 c0 -9 48 -17 73 -12 35 7 16 21 -28 20 -25 0 -45 -4 -45 -8z"/>
<path d="M10 400 c8 -5 20 -10 25 -10 6 0 3 5 -5 10 -8 5 -19 10 -25 10 -6 0
-3 -5 5 -10z"/>
<path d="M63 383 c9 -2 23 -2 30 0 6 3 -1 5 -18 5 -16 0 -22 -2 -12 -5z"/>
<path d="M215 380 c3 -5 8 -10 11 -10 2 0 4 5 4 10 0 6 -5 10 -11 10 -5 0 -7
-4 -4 -10z"/>
<path d="M157 359 c7 -7 15 -10 18 -7 3 3 -2 9 -12 12 -14 6 -15 5 -6 -5z"/>
<path d="M5 350 c3 -5 16 -10 28 -9 21 0 21 1 2 9 -28 12 -37 12 -30 0z"/>
<path d="M70 313 c-24 -14 -24 -14 15 -9 22 3 47 6 55 6 13 0 13 1 0 10 -20
13 -40 11 -70 -7z"/>
<path d="M148 303 c-24 -6 -23 -19 2 -26 11 -3 18 -1 15 3 -3 5 3 13 12 19 19
11 5 13 -29 4z"/>
<path d="M0 290 c0 -5 5 -10 11 -10 5 0 7 5 4 10 -3 6 -8 10 -11 10 -2 0 -4
-4 -4 -10z"/>
<path d="M5 150 c3 -5 8 -10 11 -10 2 0 4 5 4 10 0 6 -5 10 -11 10 -5 0 -7 -4
-4 -10z"/>
<path d="M0 105 c0 -8 8 -11 20 -8 11 3 20 7 20 8 0 1 -9 5 -20 8 -12 3 -20 0
-20 -8z"/>
</g>
</svg>
